<svg width="428" height="428" viewBox="0 0 428 428" fill="none" xmlns="http://www.w3.org/2000/svg">
<rect width="428" height="428" fill="#D9D9D9" fill-opacity="0.2"/>
<path d="M214 319C156.008 319 109 271.992 109 214C109 156.008 156.008 109 214 109C271.992 109 319 156.008 319 214C319 271.992 271.992 319 214 319ZM214 120.423C162.598 120.423 120.423 162.598 120.423 214C120.423 265.402 162.598 307.577 214 307.577C265.402 307.577 307.577 265.402 307.577 214C307.577 162.598 265.402 120.423 214 120.423Z" fill="#78B1EA"/>
<path d="M152.494 290.004L141.95 285.172C145.025 277.703 154.69 273.749 165.674 268.916C176.218 264.084 189.397 258.372 189.397 251.343V241.678C185.443 238.603 179.293 231.573 178.414 221.469C175.339 218.393 170.506 212.682 170.506 205.653C170.506 201.259 172.264 197.745 173.582 195.548C172.703 190.715 170.946 181.05 170.946 173.582C170.946 149.418 187.64 133.603 214 133.603C221.469 133.603 230.695 135.799 235.527 141.071C247.389 143.268 257.054 157.326 257.054 173.582C257.054 184.126 255.297 192.912 253.979 196.866C255.297 199.063 256.615 202.138 256.615 205.653C256.615 214 252.661 219.272 248.707 221.908C247.828 232.013 242.117 238.603 238.603 241.678V251.343C238.603 257.494 249.586 261.448 259.69 265.402C271.552 269.795 283.854 274.188 287.808 284.293L276.824 288.247C275.067 282.975 264.523 279.46 255.736 275.946C242.117 271.113 226.741 265.402 226.741 251.343V235.527L229.377 233.77C229.816 233.77 237.285 228.498 237.285 218.393V214.439L240.799 213.121C241.238 212.682 244.753 210.925 244.753 205.653C244.753 203.895 243.435 202.138 242.996 201.699L240.799 199.063L241.678 195.987C241.678 195.987 244.753 186.322 244.753 173.142C244.753 162.159 238.603 152.054 232.013 152.054H228.498L226.741 148.979C225.423 146.782 220.151 144.586 213.121 144.586C193.351 144.586 181.49 155.13 181.49 173.142C181.49 181.49 184.565 195.109 184.565 195.109L185.443 198.184L183.247 200.381C183.247 200.381 181.49 202.577 181.49 204.774C181.49 207.849 185.443 211.803 187.201 213.561L189.397 215.318V218.393C189.397 228.059 197.745 233.331 197.745 233.331L200.381 235.088V250.904C200.381 265.402 184.125 272.87 169.628 279.021C163.477 282.536 154.251 286.929 152.494 290.004Z" fill="#78B1EA"/>
</svg>
