<svg width="428" height="380" viewBox="0 0 428 380" fill="none" xmlns="http://www.w3.org/2000/svg">
<rect width="428" height="380" fill="#D9D9D9" fill-opacity="0.2"/>
<path d="M146.321 130.69C144.349 130.787 143.598 130.903 142.904 131.214C141.683 131.776 140.481 132.998 139.843 134.298C139.317 135.384 139.298 135.5 139.167 139.496C138.791 150.455 139.111 227.752 139.524 229.789C139.655 230.409 139.956 230.894 140.707 231.689C141.27 232.271 141.965 232.873 142.265 233.047C143.204 233.552 150.039 233.649 194.353 233.804L236.076 233.939V230.7V227.48L190.692 227.442L145.288 227.383L145.345 182.286C145.382 157.477 145.457 137.149 145.495 137.091C145.551 137.052 176.515 136.975 214.295 136.936L283.019 136.858L282.982 182.111L282.926 227.383L278.288 227.442L273.631 227.48V230.681V233.881H275.753C276.898 233.862 279.452 233.784 281.386 233.687C285.517 233.474 286.399 233.202 287.564 231.728C288.634 230.351 288.709 230.118 288.859 226.801C289.047 222.747 289.047 141.436 288.859 137.382C288.747 135.171 288.634 134.104 288.409 133.696C288.108 133.115 286.756 131.679 285.761 130.923L285.216 130.496L217.036 130.535C179.538 130.554 147.711 130.612 146.321 130.69Z" fill="#78B1EA"/>
<path d="M157.775 149.796V152.996H214.107H270.439V149.796V146.595H214.107H157.775V149.796Z" fill="#78B1EA"/>
<path d="M157.775 169.193V172.393H214.107H270.439V169.193V165.992H214.107H157.775V169.193Z" fill="#78B1EA"/>
<path d="M253.483 182.363C252.657 182.673 252.413 182.867 250.704 184.574L249.464 185.796L247.192 185.583C244.376 185.311 243.813 185.428 242.742 186.398C241.653 187.387 241.184 188.337 240.827 190.316C240.508 192.159 240.264 192.469 238.461 193.575C236.959 194.486 235.964 195.34 235.626 196.038C234.893 197.512 235.175 199.588 236.433 201.973L237.147 203.331L236.527 204.495C235.832 205.775 235.137 207.831 235.137 208.646C235.137 210.333 236.17 211.769 238.348 213.049C239.156 213.534 239.982 214.135 240.189 214.387C240.376 214.659 240.658 215.59 240.827 216.463C241.559 220.594 243.08 221.622 247.568 221.099L249.464 220.885L251.042 222.456C252.901 224.299 253.577 224.648 254.929 224.474C256.393 224.26 257.257 223.775 258.816 222.282L260.243 220.905L262.947 221.176L265.65 221.467L266.74 220.342C268.035 219.043 268.448 218.209 268.73 216.249C268.861 215.474 269.03 214.659 269.124 214.465C269.237 214.271 269.988 213.747 270.814 213.301C273.387 211.924 274.588 210.081 274.326 207.928C274.25 207.424 273.819 206.241 273.312 205.232L272.448 203.467L273.105 202.129C273.837 200.713 274.382 199.006 274.382 198.21C274.382 196.445 273.274 194.99 270.983 193.73C270.138 193.245 269.35 192.702 269.199 192.469C269.068 192.256 268.861 191.441 268.73 190.646C268.467 188.803 268.148 187.891 267.491 187.038C266.514 185.758 266.308 185.699 263.097 185.583C259.848 185.447 259.923 185.486 258.215 183.915C257.088 182.887 255.586 182.092 254.76 182.111C254.459 182.111 253.877 182.227 253.483 182.363ZM255.98 190.626C257.52 191.868 258.29 192.178 259.942 192.178C262.364 192.178 262.515 192.256 262.853 193.516C263.491 195.747 264.524 197.182 266.345 198.346C266.721 198.579 267.059 198.909 267.115 199.044C267.171 199.2 267.021 199.995 266.758 200.829C266.176 202.788 266.195 203.952 266.796 205.969L267.303 207.579L266.758 207.986C265.763 208.685 264.092 210.547 263.66 211.4C263.435 211.866 263.097 212.777 262.928 213.418L262.609 214.581L260.825 214.504C258.853 214.446 258.121 214.659 256.506 215.803C256.055 216.114 255.417 216.521 255.079 216.696L254.459 217.025L253.577 216.211C252.112 214.872 251.323 214.581 248.939 214.562L246.873 214.543L246.479 213.088C245.803 210.586 244.92 209.364 243.005 208.374C242.517 208.103 242.066 207.831 242.01 207.734C241.954 207.637 242.141 207.094 242.404 206.512C243.137 204.902 243.212 202.613 242.611 200.771C242.348 200.014 242.179 199.297 242.254 199.2C242.31 199.083 242.892 198.598 243.531 198.113C245.258 196.794 246.573 194.777 246.592 193.419C246.592 193.09 246.723 192.702 246.873 192.566C247.023 192.43 248.131 192.256 249.352 192.159C251.83 191.945 252.488 191.674 253.802 190.258C254.253 189.773 254.628 189.54 254.741 189.637C254.854 189.715 255.417 190.161 255.98 190.626Z" fill="#78B1EA"/>
<path d="M157.775 188.59V191.79H190.635H223.496V188.59V185.389H190.635H157.775V188.59Z" fill="#78B1EA"/>
<path d="M157.775 207.986V211.187H190.635H223.496V207.986V204.786H190.635H157.775V207.986Z" fill="#78B1EA"/>
<path d="M239.982 226.258C239.851 228.741 239.982 248.914 240.132 249.554L240.226 250L240.827 249.554C241.165 249.302 243.756 247.187 246.592 244.84C249.427 242.474 252.413 240.03 253.22 239.409C254.609 238.342 254.722 238.284 255.135 238.556C255.849 239.002 260.637 242.862 264.899 246.45C268.279 249.302 268.861 249.709 269.03 249.437C269.143 249.224 269.237 244.53 269.274 236.636L269.35 224.183H266.233H263.116V230.39C263.116 233.804 263.078 236.597 263.022 236.597C262.965 236.597 261.801 235.646 260.43 234.483C257.219 231.767 255.098 230.196 254.609 230.196C254.403 230.196 252.563 231.592 250.366 233.416L246.498 236.636L246.385 233.862C246.31 232.329 246.254 229.517 246.235 227.616L246.216 224.183H243.137H240.076L239.982 226.258Z" fill="#78B1EA"/>
</svg>
