<svg width="428" height="380" viewBox="0 0 428 380" fill="none" xmlns="http://www.w3.org/2000/svg">
<rect width="428" height="380" fill="#D9D9D9" fill-opacity="0.2"/>
<path d="M207.011 42.01C196.768 44.5304 188.939 53.1104 187.33 63.5136C186.74 67.4283 186.687 67.5355 184.81 68.1254C181.592 69.1443 173.441 73.1125 169.473 75.5793C160.303 81.2099 149.954 90.916 144.162 99.2279C140.837 104.054 136.118 113.01 134.081 118.211L132.633 122.019L128.933 122.608C116.545 124.539 107 135.693 107 148.188C107 155.749 109.467 161.647 114.829 167.064C118.744 170.978 123.248 173.338 128.879 174.357L132.794 175.054L135.1 180.738C139.55 191.731 145.127 200.043 153.654 208.569C162.663 217.578 171.725 223.584 183.362 228.196L187.652 229.912L188.349 233.237C190.387 243.265 197.894 251.416 207.493 253.936C208.995 254.365 212.051 254.687 214.304 254.687C226.906 254.687 237.738 245.624 240.044 233.183L240.687 229.644L243.583 228.732C245.192 228.196 249.053 226.48 252.217 224.925C271.575 215.219 286.697 198.488 294.151 178.539L295.867 173.928L299.353 173.284C309.005 171.461 317.103 163.792 319.623 154.14C322.733 142.182 316.996 129.58 305.949 124.217C303.75 123.145 300.372 121.911 298.495 121.59L295.117 120.892L293.883 117.675C289.432 105.824 280.262 92.632 270.449 84.1593C262.513 77.2953 252.002 71.0748 243.1 67.9645C239.668 66.7848 239.454 66.6239 239.454 65.0688C239.454 62.8701 238.06 58.2584 236.397 54.9336C234.681 51.6089 229.319 46.2464 225.726 44.3695C220.256 41.4201 213.017 40.5085 207.011 42.01ZM222.401 47.8015C226.691 49.732 231.035 54.022 233.019 58.2048C239.132 71.2893 230.981 86.6796 216.663 89.1464C209.906 90.3261 201.916 87.5376 197.305 82.3896C189.261 73.4879 189.475 60.6179 197.787 52.306C204.544 45.5493 213.821 43.8333 222.401 47.8015ZM245.031 73.3806C258.383 78.8504 270.61 88.342 279.297 99.9786C282.729 104.59 289.486 117.139 290.183 120.142C290.451 121.482 290.344 121.59 288.253 121.965C284.928 122.501 279.19 125.611 276.294 128.346C273.291 131.296 270.503 135.478 269.269 139.125C267.982 142.771 267.607 149.153 268.358 152.907C270.342 162.452 278.922 171.246 288.253 173.23C289.7 173.552 290.934 174.035 290.934 174.303C290.934 175.161 288.413 181.489 286.483 185.403C281.549 195.324 272.004 206.532 262.244 213.825C257.257 217.525 245.031 224.067 241.545 224.925C240.258 225.247 240.097 225.139 239.829 223.048C238.971 216.72 233.126 208.891 226.691 205.459C211.73 197.469 193.819 204.923 188.939 221.171C188.349 223.209 187.759 224.979 187.706 225.086C187.438 225.408 179.126 221.922 175.64 219.991C162.341 212.645 150.49 201.062 143.626 188.835C141.32 184.76 137.566 176.18 137.566 175.107C137.566 174.678 138.424 174.196 139.55 173.981C143.143 173.338 148.935 169.959 152.099 166.742C162.073 156.553 161.966 140.09 151.831 129.955C148.399 126.577 143.411 123.735 139.55 123.037C137.566 122.662 137.459 122.555 137.781 120.946C138.371 118.104 143.787 107.433 147.326 102.285C151.991 95.4205 161.59 85.8753 168.454 81.3171C173.173 78.1533 182.879 73.1661 186.151 72.1473C187.169 71.8255 187.384 72.04 187.706 73.8096C188.885 80.191 194.999 87.8058 201.38 90.9696C205.67 93.061 208.619 93.7581 213.178 93.8118C220.363 93.8118 226.423 91.2914 231.732 86.0361C235.271 82.5505 237.202 79.2258 238.649 74.3459C239.132 72.6835 239.615 71.2893 239.722 71.2893C239.829 71.2893 242.189 72.2545 245.031 73.3806ZM298.602 126.255C307.665 128.132 313.993 134.835 315.709 144.219C317.425 153.282 312.169 163.095 303.268 167.439C300.05 168.994 299.353 169.155 294.419 169.155C287.555 169.101 284.177 167.868 279.673 163.685C273.559 158.055 271.039 150.064 272.916 142.611C275.061 134.191 281.335 128.025 289.432 126.255C293.776 125.343 294.259 125.343 298.602 126.255ZM142.124 128.561C151.08 132.797 156.55 142.718 154.834 151.727C153.064 161.433 146.254 168.297 136.655 170.067C127.378 171.783 117.618 166.42 113.274 157.197C111.719 153.925 111.558 153.121 111.558 148.509C111.558 143.898 111.719 143.093 113.274 139.768C117.403 131.028 125.179 126.255 134.456 126.738C137.674 126.898 139.443 127.327 142.124 128.561ZM218.755 207.229C225.35 208.623 230.874 212.913 233.823 218.973C241.867 235.382 226.637 254.204 208.995 249.646C192.586 245.463 186.901 225.783 198.484 213.396C202.131 209.535 208.351 206.692 213.714 206.478C214.465 206.478 216.717 206.8 218.755 207.229Z" fill="#78B1EA"/>
<path d="M220.256 55.8989C219.934 56.2743 218.433 59.3309 216.878 62.7093C215.376 66.0877 213.66 69.7878 213.07 70.9675L211.998 73.0589L208.941 70.0023C205.938 67.0529 204.329 66.4094 203.096 67.6428C201.755 68.9834 202.56 70.4849 207.118 75.1503C213.767 81.9607 213.285 82.1752 219.452 68.8762C222.187 62.9774 224.439 57.7758 224.439 57.3468C224.439 55.4163 221.489 54.3974 220.256 55.8989Z" fill="#78B1EA"/>
<path d="M205.67 102.66C199.986 104.269 196.446 107.165 194.194 112.044C193.283 113.975 193.068 115.745 192.907 120.893C192.854 124.432 192.639 129.204 192.478 131.457C192.156 136.176 192.961 138.696 195.535 140.519C196.393 141.109 197.09 142.021 197.09 142.557C197.09 143.04 197.733 144.756 198.484 146.257C200.147 149.636 203.471 152.317 207.869 153.926C210.496 154.891 210.872 155.159 210.228 155.802C209.156 156.875 208.19 160.2 208.566 161.54C208.727 162.184 208.566 164.329 208.244 166.313L207.601 169.959L209.96 172.373C213.07 175.536 214.357 175.536 217.414 172.426L219.773 170.013L219.344 167.171C219.076 165.616 218.915 163.364 218.969 162.184C219.076 159.717 217.682 155.481 216.77 155.427C216.395 155.427 217.414 154.944 219.023 154.355C223.313 152.853 227.281 149.636 228.943 146.311C229.694 144.756 230.338 143.04 230.338 142.557C230.338 142.021 231.035 141.109 231.893 140.519C234.467 138.696 235.271 136.176 234.949 131.457C234.788 129.204 234.574 124.432 234.52 120.893C234.359 115.101 234.199 114.136 232.858 111.401C231.035 107.701 227.978 104.966 223.956 103.411C219.988 101.856 210.014 101.48 205.67 102.66ZM225.726 115.852C227.174 116.495 228.622 117.729 229.265 118.801C230.552 120.785 230.659 119.82 227.71 133.494C225.297 144.595 225.082 145.131 222.562 147.222C216.985 151.727 210.657 151.834 205.026 147.383C202.452 145.292 202.238 144.809 200.2 135.371C199.289 131.242 198.216 126.416 197.841 124.646C196.929 120.732 197.144 119.552 199.289 117.461C201.434 115.262 203.203 115.316 208.03 117.621C210.121 118.64 212.534 119.606 213.338 119.82L214.894 120.142L213.392 118.211C211.676 115.959 211.891 115.316 213.875 116.871C216.234 118.748 219.773 120.088 222.508 120.088H225.136L222.669 117.568C221.275 116.174 220.149 114.833 220.149 114.565C220.149 113.868 222.83 114.458 225.726 115.852ZM214.894 166.742C215.054 167.654 214.84 168.619 214.518 168.887C213.607 169.638 211.998 168.941 212.32 167.975C212.48 167.546 212.641 166.742 212.641 166.152C212.641 164.382 214.625 164.865 214.894 166.742Z" fill="#78B1EA"/>
<path d="M203.954 125.504C202.613 126.255 202.667 128.99 204.008 129.741C204.598 130.009 205.295 130.277 205.616 130.277C206.474 130.277 207.815 128.668 207.815 127.596C207.815 126.469 206.474 124.914 205.509 124.914C205.134 124.914 204.437 125.182 203.954 125.504Z" fill="#78B1EA"/>
<path d="M220.042 125.504C218.862 126.148 218.808 128.293 219.934 129.419C221.007 130.545 221.918 130.491 222.991 129.312C224.117 128.078 224.171 126.845 223.045 125.772C222.079 124.807 221.329 124.7 220.042 125.504Z" fill="#78B1EA"/>
<path d="M207.064 140.787C205.777 142.021 205.992 143.04 207.922 144.809C211.462 148.027 215.537 148.134 218.808 145.077C221.007 142.986 221.168 141.913 219.505 140.787C218.433 140.037 218.218 140.037 217.199 140.734C213.607 143.361 213.928 143.254 212.266 142.396C211.408 141.967 210.389 141.216 210.014 140.787C209.102 139.715 208.137 139.715 207.064 140.787Z" fill="#78B1EA"/>
<path d="M193.872 152.531C192.264 152.96 188.242 154.623 184.971 156.285C175.211 161.058 173.334 164.168 172.422 176.823C171.618 188.138 171.725 191.624 172.851 192.643C174.514 194.144 187.545 194.841 213.714 194.841C240.258 194.841 252.914 194.144 254.63 192.589C255.595 191.731 255.648 191.141 255.327 182.561C254.737 168.458 253.396 163.739 248.999 160.146C244.28 156.285 232.107 151.405 228.3 151.834C226.959 151.995 226.798 152.317 225.726 156.553C223.205 166.366 219.13 174.571 215.322 177.36C214.411 178.057 213.285 178.486 212.909 178.325C211.783 177.896 207.869 172.748 206.206 169.477C204.866 166.795 202.292 158.966 201.005 153.872C200.576 152.209 200.307 151.995 198.699 151.888C197.68 151.834 195.481 152.102 193.872 152.531ZM197.68 158.805C200.254 168.565 203.31 174.571 208.19 179.451C212.212 183.526 213.177 183.955 215.751 182.615C217.896 181.489 222.401 176.555 224.278 173.177C226.101 169.906 228.246 164.382 229.533 159.61C230.016 157.947 230.552 156.553 230.766 156.553C233.287 156.553 243.529 161.272 246.21 163.685C248.087 165.294 249.428 167.707 249.964 170.174C250.447 172.587 251.466 188.728 251.09 189.05C249.213 190.927 178.16 190.927 176.283 189.05C175.801 188.514 177.249 171.193 178.053 168.565C179.072 165.026 181.7 162.666 187.277 159.985C191.406 158.055 195.159 156.66 196.393 156.607C196.768 156.553 197.304 157.572 197.68 158.805Z" fill="#78B1EA"/>
<path d="M302.034 135.532C301.391 135.639 300.425 137.141 299.46 139.286C298.549 141.27 296.725 145.238 295.385 148.134L292.918 153.389L289.861 150.386C288.253 148.778 286.376 147.437 285.786 147.437C284.392 147.437 283.426 148.402 283.426 149.796C283.426 151.137 292.382 160.307 293.669 160.307C295.063 160.307 295.921 158.859 300.801 148.188C304.662 139.715 305.413 137.731 304.93 136.819C304.286 135.586 303.428 135.21 302.034 135.532Z" fill="#78B1EA"/>
<path d="M140.408 136.068C140.087 136.283 138.049 140.197 135.958 144.756C133.866 149.314 131.989 153.228 131.721 153.496C131.453 153.765 130.112 152.585 128.718 150.976C126.091 147.866 124.16 147.115 122.659 148.616C121.372 149.904 122.122 151.191 126.734 155.963C131.185 160.629 132.257 161.326 133.652 160.414C134.563 159.824 144.001 139.447 144.001 137.999C144.001 136.283 141.856 135.157 140.408 136.068Z" fill="#78B1EA"/>
<path d="M220.792 216.72C220.524 217.096 218.647 221.01 216.663 225.461C214.625 229.858 212.856 233.666 212.695 233.88C212.48 234.095 210.925 232.861 209.209 231.092C205.831 227.66 205.187 227.392 203.847 228.732C202.345 230.18 202.882 231.467 207.064 235.918C211.944 241.066 212.856 241.656 214.304 240.637C215.323 239.993 224.975 219.884 224.975 218.436C224.975 216.613 221.918 215.38 220.792 216.72Z" fill="#78B1EA"/>
<path d="M117.725 320.163C116.652 320.753 115.205 322.147 114.507 323.166C113.328 324.882 113.167 325.74 113.167 329.44C113.167 334.642 114.4 337.216 117.886 338.932C120.674 340.38 125.554 340.165 127.806 338.556C129.951 336.948 131.56 333.784 130.809 332.604C129.898 331.156 128.289 331.424 127.485 333.087C125.661 336.948 121.371 337.913 118.744 335.071C117.35 333.569 117.189 333.033 117.189 329.815C117.189 324.775 118.958 322.254 122.551 322.254C124.75 322.254 125.608 322.844 127.324 325.311C128.664 327.295 129.093 327.456 130.327 326.223C131.346 325.204 130.97 323.649 129.308 321.772C126.788 318.93 121.157 318.125 117.725 320.163Z" fill="#78B1EA"/>
<path d="M139.443 319.788C133.598 322.415 131.936 331.531 136.333 336.787C140.516 341.72 149.471 340.809 152.42 335.178C155.102 330.03 153.493 322.683 149.096 320.27C146.629 318.876 142.017 318.661 139.443 319.788ZM146.629 323.059C148.452 323.97 149.632 326.544 149.632 329.494C149.632 333.891 147.272 336.733 143.572 336.733C140.033 336.733 137.834 333.247 138.21 328.314C138.424 325.74 138.746 325.043 140.194 323.756C142.071 322.04 144.269 321.825 146.629 323.059Z" fill="#78B1EA"/>
<path d="M158.319 319.734C157.461 320.324 157.408 321.45 157.515 330.03C157.676 339.093 157.729 339.683 158.695 339.843C160.679 340.219 161.161 338.556 161.215 331.424L161.269 324.668L163.038 331.532C164.915 338.878 165.451 339.951 167.328 339.951C168.83 339.951 169.259 338.932 171.35 330.834L172.905 324.668V331.424C172.959 338.556 173.441 340.219 175.426 339.843C176.391 339.683 176.444 339.093 176.605 329.923C176.766 318.93 176.713 318.769 172.744 319.412C170.599 319.734 170.599 319.734 168.347 328.529C167.811 330.674 167.221 332.443 167.06 332.443C166.899 332.443 166.041 329.655 165.237 326.276C163.682 319.841 163.145 319.037 160.518 319.037C159.821 319.037 158.802 319.359 158.319 319.734Z" fill="#78B1EA"/>
<path d="M182.987 319.412C181.378 319.841 181.003 321.933 181.003 329.762C181.003 337.698 181.432 339.951 183.04 339.951C184.703 339.951 185.293 338.771 185.293 335.285V331.907H187.598C193.819 331.853 196.554 329.869 196.554 325.472C196.554 322.04 195.052 320.163 191.728 319.52C189.207 319.037 184.595 318.983 182.987 319.412ZM192.049 323.595C193.926 326.169 192.371 328.26 188.296 328.582L185.293 328.797V325.472V322.147L188.296 322.362C190.441 322.523 191.567 322.898 192.049 323.595Z" fill="#78B1EA"/>
<path d="M201.219 319.841C200.468 320.592 200.307 322.04 200.307 329.386C200.307 334.159 200.522 338.395 200.79 338.824C201.326 339.682 209.585 340.272 213.392 339.736C215.537 339.414 215.859 339.2 215.859 338.074C215.859 336.465 213.982 336.036 208.405 336.304L204.597 336.465V333.355V330.298H209.745C214.733 330.298 214.84 330.244 214.679 329.065C214.518 327.939 214.25 327.885 209.585 327.724L204.597 327.563V324.936V322.254H209.96C214.357 322.254 215.43 322.093 215.698 321.396C216.288 319.788 214.84 319.305 208.405 319.144C203.096 318.983 201.916 319.09 201.219 319.841Z" fill="#78B1EA"/>
<path d="M218.272 319.788C216.449 321.128 217.843 322.469 221.114 322.683L223.849 322.844L224.01 330.942C224.171 337.967 224.278 339.093 225.136 339.629C225.779 340.058 226.316 340.058 227.013 339.629C227.817 339.093 227.924 337.967 228.085 330.888L228.246 322.791H230.552C233.716 322.791 234.628 322.362 234.628 320.914C234.628 319.305 233.77 319.144 225.779 319.037C220.846 318.983 219.076 319.198 218.272 319.788Z" fill="#78B1EA"/>
<path d="M238.542 319.573C237.309 320.056 237.309 320.217 237.309 329.494V338.878L238.703 339.414C240.205 340.004 245.782 340.058 249.911 339.522C251.841 339.253 252.646 338.878 252.753 338.235C253.021 336.84 250.822 336.197 245.835 336.197H241.599V333.247V330.352L246.586 330.191C251.09 330.03 251.519 329.923 251.519 328.957C251.519 327.992 251.09 327.885 246.586 327.724L241.599 327.563V324.936V322.254H246.908C251.09 322.254 252.27 322.093 252.538 321.45C253.235 319.627 251.412 319.037 245.46 319.09C242.296 319.09 239.186 319.305 238.542 319.573Z" fill="#78B1EA"/>
<path d="M257.311 319.412C256.775 319.573 256.614 322.147 256.614 329.547C256.614 338.235 256.721 339.468 257.472 339.79C257.954 339.951 258.759 339.897 259.241 339.575C259.939 339.146 260.153 337.806 260.26 332.443L260.421 325.847L264.175 331.692C266.266 334.91 268.465 338.074 269.108 338.717C270.288 340.004 272.38 340.326 273.023 339.361C273.452 338.61 273.398 320.27 272.969 319.573C272.433 318.715 270.61 318.983 270.074 320.002C269.806 320.538 269.645 323.649 269.752 326.973C269.859 330.244 269.752 332.979 269.591 332.979C269.377 332.926 267.178 329.815 264.765 326.008C260.207 318.983 259.617 318.447 257.311 319.412Z" fill="#78B1EA"/>
<path d="M282.086 320.27C276.294 323.488 275.812 334.427 281.335 338.342C283.158 339.683 286.644 340.272 289.593 339.736C292.328 339.2 295.224 336.143 295.224 333.73C295.224 331.371 293.83 330.62 292.596 332.443C290.505 335.5 288.896 336.733 287.019 336.733C282.944 336.733 280.638 332.497 281.818 327.242C282.568 323.863 284.284 322.254 287.073 322.254C288.628 322.254 289.379 322.683 291.202 324.668C293.669 327.402 295.224 327.51 295.224 324.936C295.224 320.109 287.341 317.321 282.086 320.27Z" fill="#78B1EA"/>
<path d="M300.479 319.627C299.621 320.109 299.514 321.182 299.514 329.494C299.514 336.358 299.675 338.932 300.211 339.253C301.176 339.897 312.866 340.004 314.046 339.361C315.44 338.664 315.333 337.43 313.885 336.679C313.188 336.304 312.598 336.036 312.545 336.09C312.437 336.143 310.346 336.197 307.772 336.197H303.214L303.375 333.355L303.536 330.566L308.63 330.298C313.295 330.03 313.724 329.923 313.724 328.957C313.724 327.992 313.295 327.885 308.523 327.724L303.268 327.563V324.936V322.308L308.737 322.147C313.617 321.986 314.261 321.879 314.422 320.967C314.529 320.431 314.314 319.788 313.885 319.519C312.92 318.876 301.605 318.93 300.479 319.627Z" fill="#78B1EA"/>
</svg>
